<svg xmlns="http://www.w3.org/2000/svg" width="177.12" height="29.002" viewBox="0 0 177.12 29.002"><g transform="translate(1441.28 366.56)"><path d="M19.416-9.912q0,.144-1.512.216A2.5,2.5,0,0,0,16.86-9.5a1.274,1.274,0,0,0-.324.768A10.386,10.386,0,0,1,14.3-3.672l.168.264.5.816L15.5-1.8a2.8,2.8,0,0,0,1.08,1.044,6.123,6.123,0,0,0,1.992.324q.552.024.552.264,0,.168-.48.168l-1.44-.024q-1.44-.024-1.176-.024-.672,0-3.24.072-.36-.7-.7-1.272A7.247,7.247,0,0,1,7.248.336,6.674,6.674,0,0,1,2.964-.972,4.163,4.163,0,0,1,1.32-4.392,4.279,4.279,0,0,1,2.352-7.32,8.8,8.8,0,0,1,5.736-9.432a17.491,17.491,0,0,1-1.248-1.344,3.864,3.864,0,0,1-.816-2.472,3.256,3.256,0,0,1,1.2-2.616,4.687,4.687,0,0,1,3.12-1.008A4.918,4.918,0,0,1,11.028-16a2.715,2.715,0,0,1,1.164,2.268q0,2.4-3.264,3.312,1.056,1.08,2.688,3.132A36.1,36.1,0,0,1,13.944-4.1,7.34,7.34,0,0,0,15.7-9.1q0-.6-.624-.6-1.9.024-1.9-.24,0-.192.792-.192L16.1-10.1l2.04-.024Q19.416-10.152,19.416-9.912ZM9.6-13.464q0-3-1.488-3-1.416,0-1.416,2.016a4.327,4.327,0,0,0,.528,1.968,5.3,5.3,0,0,0,1.344,1.7A3.065,3.065,0,0,0,9.6-13.464ZM11.784-1.656Q8.016-6.72,6.024-9.024q-1.2.888-1.2,3.432A5.12,5.12,0,0,0,6.072-2.1,3.923,3.923,0,0,0,9.144-.672,3.723,3.723,0,0,0,11.784-1.656Z" transform="translate(-1360 -342)" fill="#fff"/><path d="M26.92-20.56,20.68-.8H20.6L14.28-20.56H13.04L6.68-.8H6.6L.48-20.56H-.28L6.08,0H7.2l6.44-19.76h.08L20.12,0h1.04l6.56-20.56ZM31.2-10.12H48.4a14.249,14.249,0,0,0-.42-4.08,10.15,10.15,0,0,0-1.6-3.48,8.145,8.145,0,0,0-2.84-2.44,8.744,8.744,0,0,0-4.14-.92,8.28,8.28,0,0,0-3.36.72,8.356,8.356,0,0,0-2.88,2.1,10.659,10.659,0,0,0-2,3.38,12.773,12.773,0,0,0-.76,4.56,16.724,16.724,0,0,0,.52,4.26,9.98,9.98,0,0,0,1.6,3.44A7.218,7.218,0,0,0,35.3-.32a9.2,9.2,0,0,0,4.1.76,8.994,8.994,0,0,0,5.92-1.98,8.194,8.194,0,0,0,2.84-5.58h-.8a7.691,7.691,0,0,1-2.66,5.1,8.379,8.379,0,0,1-5.38,1.7,8.258,8.258,0,0,1-3.72-.76,6.738,6.738,0,0,1-2.48-2.08,9.069,9.069,0,0,1-1.42-3.1A16.687,16.687,0,0,1,31.2-10.12Zm16.4-.8H31.2A12.373,12.373,0,0,1,32-14.8a9.621,9.621,0,0,1,1.78-2.94,7.438,7.438,0,0,1,2.56-1.86,7.734,7.734,0,0,1,3.14-.64A7.949,7.949,0,0,1,43-19.5a7.267,7.267,0,0,1,2.54,2.02,8.908,8.908,0,0,1,1.54,2.98A12.172,12.172,0,0,1,47.6-10.92Zm6.8-3.88V-28.56h-.8V0h.8V-5.76h.08a8.7,8.7,0,0,0,2.94,4.48A8.19,8.19,0,0,0,62.72.44a8.156,8.156,0,0,0,3.66-.8,8.1,8.1,0,0,0,2.76-2.22,10.017,10.017,0,0,0,1.74-3.38,14.564,14.564,0,0,0,.6-4.28,14.445,14.445,0,0,0-.58-4.12,10.887,10.887,0,0,0-1.68-3.44,8.2,8.2,0,0,0-2.74-2.36,7.828,7.828,0,0,0-3.76-.88,8.3,8.3,0,0,0-5.4,1.72,8.313,8.313,0,0,0-2.84,4.52Zm0,4.56q0-4.84,2.28-7.42a7.666,7.666,0,0,1,6.04-2.58,6.911,6.911,0,0,1,3.62.9,7.728,7.728,0,0,1,2.46,2.32,10.234,10.234,0,0,1,1.42,3.2,14.255,14.255,0,0,1,.46,3.58,13.984,13.984,0,0,1-.5,3.76A10.115,10.115,0,0,1,68.7-3.3a7.1,7.1,0,0,1-2.48,2.18,7.329,7.329,0,0,1-3.5.8,7.6,7.6,0,0,1-3.52-.8,7.779,7.779,0,0,1-2.62-2.16,9.841,9.841,0,0,1-1.62-3.16A12.719,12.719,0,0,1,54.4-10.24Z" transform="translate(-1441 -338)" fill="#fff"/><path d="M0-19.76H3.48V0h.8V-19.76H8.72v-.8H4.28v-4.28a3.457,3.457,0,0,1,.58-2.22,3.249,3.249,0,0,1,2.5-.7q.44,0,.88.04t1,.12v-.8q-.32-.04-.74-.1a7.017,7.017,0,0,0-.98-.06,12.344,12.344,0,0,0-1.36.08,3.411,3.411,0,0,0-1.32.42,2.584,2.584,0,0,0-.98,1.02,3.981,3.981,0,0,0-.38,1.92v4.56H0Zm12.36-8.8V0h.8V-28.56Zm6.92,18.28A12.876,12.876,0,0,1,19.82-14a9.56,9.56,0,0,1,1.62-3.18A8.258,8.258,0,0,1,24.1-19.4a7.681,7.681,0,0,1,3.66-.84,7.594,7.594,0,0,1,3.62.84,8.258,8.258,0,0,1,2.66,2.22A9.56,9.56,0,0,1,35.66-14a12.876,12.876,0,0,1,.54,3.72,13.015,13.015,0,0,1-.54,3.76,9.56,9.56,0,0,1-1.62,3.18,8.035,8.035,0,0,1-2.66,2.2,7.745,7.745,0,0,1-3.62.82,7.835,7.835,0,0,1-3.66-.82,8.035,8.035,0,0,1-2.66-2.2,9.56,9.56,0,0,1-1.62-3.18A13.015,13.015,0,0,1,19.28-10.28Zm-.8,0a13.662,13.662,0,0,0,.6,4.06A10.313,10.313,0,0,0,20.86-2.8a8.77,8.77,0,0,0,2.9,2.36,8.575,8.575,0,0,0,3.96.88,8.667,8.667,0,0,0,4-.88,8.77,8.77,0,0,0,2.9-2.36A10.313,10.313,0,0,0,36.4-6.22a13.662,13.662,0,0,0,.6-4.06,13.662,13.662,0,0,0-.6-4.06,10.313,10.313,0,0,0-1.78-3.42,9,9,0,0,0-2.9-2.38,8.418,8.418,0,0,0-3.96-.9,8.507,8.507,0,0,0-4,.9,9,9,0,0,0-2.9,2.38,10.313,10.313,0,0,0-1.78,3.42A13.662,13.662,0,0,0,18.48-10.28ZM67.04-20.56,60.8-.8h-.08L54.4-20.56H53.16L46.8-.8h-.08L40.6-20.56h-.76L46.2,0h1.12l6.44-19.76h.08L60.24,0h1.04l6.56-20.56Z" transform="translate(-1332 -338)" fill="#000"/></g></svg>