<svg xmlns="http://www.w3.org/2000/svg" width="240.181" height="53.336" viewBox="0 0 240.181 53.336"><g transform="translate(1920.563 340.24)"><path d="M-14.416,2.677S3.952-4.392,16.031.051c11.5,3.668,15.154-4.887,24.8-3.86C57.782-2.034,52.437,2.677,68.022,2.677S84.733-4.915,99.081-3.809,111.226,4.1,124.407,4.1s13.637-9.309,27.11-9.461c10.01-.113,19.591,7.9,32.772,8.041,10,.053,19.829-4.539,28.387-11.273s5.275-14.3,5.843-15.662c1.528-.125,6.648,3.258,6.048,12.991a17.865,17.865,0,0,1-7.66,13.945" transform="translate(-1905.5 -291.5)" fill="none" stroke="#00b8c7" stroke-linecap="round" stroke-width="1"/><path d="M20.41-17.051h8.2v.723a4.814,4.814,0,0,0-2.51.752,14.42,14.42,0,0,0-2.529,3.721,41.611,41.611,0,0,1-3.867,5.8,13.482,13.482,0,0,0,3.105,2.842,5.353,5.353,0,0,0,2.754.811,3.6,3.6,0,0,0,2.285-.732A3.963,3.963,0,0,0,29.18-5.293l.723.527A7.529,7.529,0,0,1,27.578-.7,5.72,5.72,0,0,1,23.848.605,6.942,6.942,0,0,1,20.6-.264a14.551,14.551,0,0,1-3.6-2.939A16.95,16.95,0,0,1,12.627-.225a10.454,10.454,0,0,1-4.15.83A7.328,7.328,0,0,1,3.359-1.113a5.355,5.355,0,0,1-1.895-4.1,8.022,8.022,0,0,1,1.7-4.717q1.7-2.354,6.387-4.873a21.422,21.422,0,0,1-1.25-3.33,10.051,10.051,0,0,1-.332-2.49,5.875,5.875,0,0,1,2.461-5.1,7.307,7.307,0,0,1,4.355-1.367,5.309,5.309,0,0,1,3.789,1.377,4.468,4.468,0,0,1,1.465,3.389,5.243,5.243,0,0,1-1.416,3.633,18.3,18.3,0,0,1-5.01,3.418,79.328,79.328,0,0,0,5.176,8.086q3.437-4.1,3.438-6.914a2.433,2.433,0,0,0-.586-1.6,1.793,1.793,0,0,0-1.23-.625Zm-7.461.508a10.356,10.356,0,0,0,3.623-2.617,5.018,5.018,0,0,0,1.2-3.262,3.246,3.246,0,0,0-.869-2.324,2.852,2.852,0,0,0-2.158-.918,2.986,2.986,0,0,0-2.568,1.182,3.918,3.918,0,0,0-.869,2.314,7.981,7.981,0,0,0,.332,2.139A32.26,32.26,0,0,0,12.949-16.543ZM15.977-4.336Q13.4-7.852,12.4-9.473T10.215-13.5a11.145,11.145,0,0,0-3.525,2.969A5.847,5.847,0,0,0,5.508-7.012,5.492,5.492,0,0,0,6.855-3.34a4.527,4.527,0,0,0,3.633,1.582,5.979,5.979,0,0,0,2.373-.488A14.824,14.824,0,0,0,15.977-4.336Z" transform="translate(-1829 -311)" fill="#707070"/><path d="M7.36-1.76h.08l5.6-18.8h2.04l5.64,18.8h.08l5.76-18.8h1.68L21.64,0H19.76L14.12-18.64h-.08L8.36,0H6.44L-.08-20.56H1.56ZM33-10.08v.24a12.185,12.185,0,0,0,.48,3.44A8.815,8.815,0,0,0,34.9-3.52a6.747,6.747,0,0,0,2.36,1.96,7.2,7.2,0,0,0,3.3.72,7.024,7.024,0,0,0,4.88-1.62,8.482,8.482,0,0,0,2.48-4.5h1.52A9.2,9.2,0,0,1,46.5-1.44,8.923,8.923,0,0,1,40.52.48a9.066,9.066,0,0,1-3.98-.82A8.1,8.1,0,0,1,33.7-2.58,9.512,9.512,0,0,1,32-5.94a15.013,15.013,0,0,1-.56-4.18,14.652,14.652,0,0,1,.58-4.14,10.407,10.407,0,0,1,1.74-3.48,8.619,8.619,0,0,1,2.9-2.4,8.812,8.812,0,0,1,4.1-.9,8.7,8.7,0,0,1,3.82.8,8,8,0,0,1,2.78,2.18,9.69,9.69,0,0,1,1.7,3.2,12.773,12.773,0,0,1,.58,3.9q0,.2-.02.46t-.02.42ZM48.08-11.4a12.311,12.311,0,0,0-.56-3.18,7.875,7.875,0,0,0-1.42-2.64,7.063,7.063,0,0,0-2.28-1.82,6.669,6.669,0,0,0-3.06-.68,7.154,7.154,0,0,0-3.24.7,7.327,7.327,0,0,0-2.36,1.84,8.207,8.207,0,0,0-1.48,2.66,12.485,12.485,0,0,0-.64,3.12Zm7.44-17.16h1.52V-16.2h.08a6.486,6.486,0,0,1,1.24-2.1,7.77,7.77,0,0,1,1.84-1.52,8.262,8.262,0,0,1,2.24-.92,10.187,10.187,0,0,1,2.48-.3,8.993,8.993,0,0,1,3.94.8,7.9,7.9,0,0,1,2.78,2.2,9.31,9.31,0,0,1,1.66,3.26,14.364,14.364,0,0,1,.54,4.02,14.551,14.551,0,0,1-1,5.9,9.412,9.412,0,0,1-2.4,3.4A7.274,7.274,0,0,1,67.52.1a11,11,0,0,1-2.6.38,8.4,8.4,0,0,1-3.46-.64,8.521,8.521,0,0,1-2.34-1.5,7.425,7.425,0,0,1-1.4-1.7,6.9,6.9,0,0,1-.6-1.24h-.08V0H55.52ZM64.92-.84a6.342,6.342,0,0,0,3.44-.88,7.091,7.091,0,0,0,2.28-2.3,10.319,10.319,0,0,0,1.28-3.2,16.1,16.1,0,0,0,.4-3.54,11.956,11.956,0,0,0-.46-3.32,8.8,8.8,0,0,0-1.4-2.86,7.187,7.187,0,0,0-2.32-2.02,6.569,6.569,0,0,0-3.22-.76,8.268,8.268,0,0,0-3.48.68A6.6,6.6,0,0,0,59-17.16a8.157,8.157,0,0,0-1.44,2.84,12.627,12.627,0,0,0-.48,3.56,15.442,15.442,0,0,0,.44,3.68A9.671,9.671,0,0,0,58.9-3.9a7.163,7.163,0,0,0,2.42,2.22A7.189,7.189,0,0,0,64.92-.84Z" transform="translate(-1920 -311)" fill="#707070"/><path d="M2.52-28.56H20.44v1.52H4.28V-15.6H18.84v1.52H4.28V0H2.52Zm18.56,0h1.76V-1.52h16.2V0H21.08ZM63.52-14.28a18.292,18.292,0,0,1-.92,5.86,14.06,14.06,0,0,1-2.66,4.76A12.369,12.369,0,0,1,55.68-.48,13.531,13.531,0,0,1,49.96.68,13.667,13.667,0,0,1,44.22-.48a12.321,12.321,0,0,1-4.28-3.18,14.06,14.06,0,0,1-2.66-4.76,18.292,18.292,0,0,1-.92-5.86,18.292,18.292,0,0,1,.92-5.86,14.06,14.06,0,0,1,2.66-4.76,12.321,12.321,0,0,1,4.28-3.18,13.667,13.667,0,0,1,5.74-1.16,13.531,13.531,0,0,1,5.72,1.16,12.369,12.369,0,0,1,4.26,3.18,14.06,14.06,0,0,1,2.66,4.76A18.292,18.292,0,0,1,63.52-14.28Zm-25.4,0a16.588,16.588,0,0,0,.8,5.2,12.777,12.777,0,0,0,2.32,4.26,11.23,11.23,0,0,0,3.72,2.9,11.2,11.2,0,0,0,5,1.08,11.073,11.073,0,0,0,4.98-1.08,11.29,11.29,0,0,0,3.7-2.9,12.777,12.777,0,0,0,2.32-4.26,16.588,16.588,0,0,0,.8-5.2,16.588,16.588,0,0,0-.8-5.2,12.777,12.777,0,0,0-2.32-4.26,11.29,11.29,0,0,0-3.7-2.9,11.073,11.073,0,0,0-4.98-1.08,11.2,11.2,0,0,0-5,1.08,11.23,11.23,0,0,0-3.72,2.9,12.777,12.777,0,0,0-2.32,4.26A16.588,16.588,0,0,0,38.12-14.28Zm24.4-14.28h1.8L71.76-1.88h.08L79.4-28.56h2.2L89.28-1.88h.08l7.32-26.68h1.88L90.36,0h-2L80.52-27.04h-.08L72.72,0H70.76Z" transform="translate(-1788 -311)" fill="#707070"/></g></svg>