<svg xmlns="http://www.w3.org/2000/svg" width="240.181" height="52.656" viewBox="0 0 240.181 52.656"><g transform="translate(1920.563 339.56)"><path d="M-14.416,2.677S3.952-4.392,16.031.051c11.5,3.668,15.154-4.887,24.8-3.86C57.782-2.034,52.437,2.677,68.022,2.677S84.733-4.915,99.081-3.809,111.226,4.1,124.407,4.1s13.637-9.309,27.11-9.461c10.01-.113,19.591,7.9,32.772,8.041,10,.053,19.829-4.539,28.387-11.273s5.275-14.3,5.843-15.662c1.528-.125,6.648,3.258,6.048,12.991a17.865,17.865,0,0,1-7.66,13.945" transform="translate(-1905.5 -291.5)" fill="none" stroke="#00b8c7" stroke-linecap="round" stroke-width="1"/><path d="M20.41-17.051h8.2v.723a4.814,4.814,0,0,0-2.51.752,14.42,14.42,0,0,0-2.529,3.721,41.611,41.611,0,0,1-3.867,5.8,13.482,13.482,0,0,0,3.105,2.842,5.353,5.353,0,0,0,2.754.811,3.6,3.6,0,0,0,2.285-.732A3.963,3.963,0,0,0,29.18-5.293l.723.527A7.529,7.529,0,0,1,27.578-.7,5.72,5.72,0,0,1,23.848.605,6.942,6.942,0,0,1,20.6-.264a14.551,14.551,0,0,1-3.6-2.939A16.95,16.95,0,0,1,12.627-.225a10.454,10.454,0,0,1-4.15.83A7.328,7.328,0,0,1,3.359-1.113a5.355,5.355,0,0,1-1.895-4.1,8.022,8.022,0,0,1,1.7-4.717q1.7-2.354,6.387-4.873a21.422,21.422,0,0,1-1.25-3.33,10.051,10.051,0,0,1-.332-2.49,5.875,5.875,0,0,1,2.461-5.1,7.307,7.307,0,0,1,4.355-1.367,5.309,5.309,0,0,1,3.789,1.377,4.468,4.468,0,0,1,1.465,3.389,5.243,5.243,0,0,1-1.416,3.633,18.3,18.3,0,0,1-5.01,3.418,79.328,79.328,0,0,0,5.176,8.086q3.437-4.1,3.438-6.914a2.433,2.433,0,0,0-.586-1.6,1.793,1.793,0,0,0-1.23-.625Zm-7.461.508a10.356,10.356,0,0,0,3.623-2.617,5.018,5.018,0,0,0,1.2-3.262,3.246,3.246,0,0,0-.869-2.324,2.852,2.852,0,0,0-2.158-.918,2.986,2.986,0,0,0-2.568,1.182,3.918,3.918,0,0,0-.869,2.314,7.981,7.981,0,0,0,.332,2.139A32.26,32.26,0,0,0,12.949-16.543ZM15.977-4.336Q13.4-7.852,12.4-9.473T10.215-13.5a11.145,11.145,0,0,0-3.525,2.969A5.847,5.847,0,0,0,5.508-7.012,5.492,5.492,0,0,0,6.855-3.34a4.527,4.527,0,0,0,3.633,1.582,5.979,5.979,0,0,0,2.373-.488A14.824,14.824,0,0,0,15.977-4.336Z" transform="translate(-1798 -311)" fill="#707070"/><path d="M2.52-28.56h19.2v1.52H4.28V-15.6h16.4v1.52H4.28V-1.52H21.92V0H2.52Zm24.48,0h1.52V-16.2h.08a6.486,6.486,0,0,1,1.24-2.1,7.77,7.77,0,0,1,1.84-1.52,8.262,8.262,0,0,1,2.24-.92,10.187,10.187,0,0,1,2.48-.3,8.993,8.993,0,0,1,3.94.8,7.9,7.9,0,0,1,2.78,2.2,9.309,9.309,0,0,1,1.66,3.26,14.364,14.364,0,0,1,.54,4.02,14.551,14.551,0,0,1-1,5.9,9.412,9.412,0,0,1-2.4,3.4A7.274,7.274,0,0,1,39,.1a11,11,0,0,1-2.6.38,8.4,8.4,0,0,1-3.46-.64,8.521,8.521,0,0,1-2.34-1.5,7.425,7.425,0,0,1-1.4-1.7,6.9,6.9,0,0,1-.6-1.24h-.08V0H27ZM36.4-.84a6.342,6.342,0,0,0,3.44-.88,7.091,7.091,0,0,0,2.28-2.3,10.318,10.318,0,0,0,1.28-3.2,16.1,16.1,0,0,0,.4-3.54,11.956,11.956,0,0,0-.46-3.32,8.8,8.8,0,0,0-1.4-2.86,7.187,7.187,0,0,0-2.32-2.02,6.569,6.569,0,0,0-3.22-.76,8.268,8.268,0,0,0-3.48.68,6.6,6.6,0,0,0-2.44,1.88,8.157,8.157,0,0,0-1.44,2.84,12.627,12.627,0,0,0-.48,3.56A15.441,15.441,0,0,0,29-7.08,9.671,9.671,0,0,0,30.38-3.9,7.163,7.163,0,0,0,32.8-1.68,7.189,7.189,0,0,0,36.4-.84ZM51.24-28.56h1.52V-16.2h.08a6.486,6.486,0,0,1,1.24-2.1,7.77,7.77,0,0,1,1.84-1.52,8.262,8.262,0,0,1,2.24-.92,10.187,10.187,0,0,1,2.48-.3,8.993,8.993,0,0,1,3.94.8,7.9,7.9,0,0,1,2.78,2.2,9.31,9.31,0,0,1,1.66,3.26,14.364,14.364,0,0,1,.54,4.02,14.551,14.551,0,0,1-1,5.9,9.412,9.412,0,0,1-2.4,3.4A7.274,7.274,0,0,1,63.24.1a11,11,0,0,1-2.6.38,8.4,8.4,0,0,1-3.46-.64,8.521,8.521,0,0,1-2.34-1.5,7.425,7.425,0,0,1-1.4-1.7,6.9,6.9,0,0,1-.6-1.24h-.08V0H51.24ZM60.64-.84a6.342,6.342,0,0,0,3.44-.88,7.091,7.091,0,0,0,2.28-2.3,10.319,10.319,0,0,0,1.28-3.2,16.1,16.1,0,0,0,.4-3.54,11.956,11.956,0,0,0-.46-3.32,8.8,8.8,0,0,0-1.4-2.86,7.187,7.187,0,0,0-2.32-2.02,6.569,6.569,0,0,0-3.22-.76,8.268,8.268,0,0,0-3.48.68,6.6,6.6,0,0,0-2.44,1.88,8.157,8.157,0,0,0-1.44,2.84,12.627,12.627,0,0,0-.48,3.56,15.442,15.442,0,0,0,.44,3.68A9.671,9.671,0,0,0,54.62-3.9a7.163,7.163,0,0,0,2.42,2.22A7.189,7.189,0,0,0,60.64-.84Z" transform="translate(-1889 -311)" fill="#707070"/><path d="M2.52-28.56H20.44v1.52H4.28V-15.6H18.84v1.52H4.28V0H2.52Zm20.16,0V0H21.16V-28.56Zm1.88,18.28a13.522,13.522,0,0,1,.62-4.14A10.4,10.4,0,0,1,27-17.84a8.643,8.643,0,0,1,2.96-2.34A9.09,9.09,0,0,1,34-21.04a9.09,9.09,0,0,1,4.04.86A8.643,8.643,0,0,1,41-17.84a10.4,10.4,0,0,1,1.82,3.42,13.522,13.522,0,0,1,.62,4.14,13.714,13.714,0,0,1-.62,4.16A10.136,10.136,0,0,1,41-2.7,8.75,8.75,0,0,1,38.04-.38,9.09,9.09,0,0,1,34,.48a9.09,9.09,0,0,1-4.04-.86A8.75,8.75,0,0,1,27-2.7a10.136,10.136,0,0,1-1.82-3.42A13.714,13.714,0,0,1,24.56-10.28Zm1.52,0a12.034,12.034,0,0,0,.52,3.54,9.6,9.6,0,0,0,1.52,3.02,7.4,7.4,0,0,0,2.48,2.1A7.184,7.184,0,0,0,34-.84a7.184,7.184,0,0,0,3.4-.78,7.4,7.4,0,0,0,2.48-2.1A9.6,9.6,0,0,0,41.4-6.74a12.034,12.034,0,0,0,.52-3.54,12.034,12.034,0,0,0-.52-3.54,9.6,9.6,0,0,0-1.52-3.02,7.4,7.4,0,0,0-2.48-2.1,7.184,7.184,0,0,0-3.4-.78,7.184,7.184,0,0,0-3.4.78,7.4,7.4,0,0,0-2.48,2.1,9.6,9.6,0,0,0-1.52,3.02A12.034,12.034,0,0,0,26.08-10.28ZM50.12-1.76h.08l5.6-18.8h2.04l5.64,18.8h.08l5.76-18.8H71L64.4,0H62.52L56.88-18.64H56.8L51.12,0H49.2L42.68-20.56h1.64Z" transform="translate(-1757 -311)" fill="#707070"/></g></svg>